# Blender v2.90.0 OBJ File: ''
# www.blender.org
mtllib creeper.mtl
o Cube.001
v -1.600000 -2.600000 -0.000000
v -1.600000 -1.000000 -0.000000
v -1.600000 -1.000000 -1.600000
v -1.600000 -2.600000 -1.600001
v 0.000000 -2.600000 -1.600001
v 0.000000 -1.000000 -1.600000
v 1.600000 -1.000000 -1.600000
v 1.600000 -2.600000 -1.600001
v 1.600000 -2.600000 -0.000000
v 1.600000 -1.000000 -0.000000
v 1.600000 -1.000000 1.600000
v 1.600000 -2.600000 1.600000
v 0.000000 -2.600000 1.600000
v 0.000000 -1.000000 1.600000
v -1.600000 -1.000000 1.600000
v -1.600000 -2.600000 1.600000
v 0.000000 -2.600000 -0.000000
v 0.000000 -1.000000 -0.000000
vt 0.000000 0.000000
vt 1.000000 1.000000
vt 0.000000 1.000000
vt 0.000000 0.000000
vt 1.000000 1.000000
vt 0.000000 1.000000
vt 0.000000 0.000000
vt 1.000000 1.000000
vt 0.000000 1.000000
vt 0.000000 0.000000
vt 1.000000 1.000000
vt 0.000000 1.000000
vt 1.000000 0.000000
vt 0.000000 0.000000
vt 1.000000 0.000000
vt 0.000000 1.000000
vt 0.000000 0.000000
vt 1.000000 0.000000
vt 0.000000 1.000000
vt 1.000000 0.000000
vt 0.000000 1.000000
vt 0.000000 0.000000
vt 0.000000 0.000000
vt 1.000000 1.000000
vt 0.000000 1.000000
vt 0.000000 0.000000
vt 1.000000 1.000000
vt 0.000000 1.000000
vt 1.000000 0.000000
vt 0.000000 0.000000
vt 1.000000 0.000000
vt 0.000000 1.000000
vt 0.000000 0.000000
vt 1.000000 0.000000
vt 0.000000 1.000000
vt 1.000000 0.000000
vt 0.000000 1.000000
vt 0.000000 0.000000
vt 1.000000 1.000000
vt 0.000000 1.000000
vt 0.000000 0.000000
vt 1.000000 1.000000
vt 1.000000 0.000000
vt 1.000000 0.000000
vt 1.000000 0.000000
vt 1.000000 1.000000
vt 1.000000 1.000000
vt 1.000000 0.000000
vt 1.000000 1.000000
vt 1.000000 1.000000
vt 1.000000 1.000000
vt 1.000000 0.000000
vn -1.0000 0.0000 0.0000
vn 0.0000 0.0000 -1.0000
vn 1.0000 -0.0000 0.0000
vn 0.0000 -0.0000 1.0000
vn 0.0000 -1.0000 -0.0000
vn 0.0000 1.0000 0.0000
usemtl brick
s 1
f 2/1/1 4/2/1 1/3/1
f 6/4/2 8/5/2 5/6/2
f 10/7/3 12/8/3 9/9/3
f 14/10/4 16/11/4 13/12/4
f 9/13/5 13/12/5 17/14/5
f 2/15/6 14/16/6 18/17/6
f 18/18/6 11/19/6 10/7/6
f 17/20/5 16/21/5 1/22/5
f 11/23/4 13/24/4 12/25/4
f 3/26/2 5/27/2 4/28/2
f 5/29/5 1/3/5 4/30/5
f 6/31/6 10/32/6 7/33/6
f 3/34/6 18/35/6 6/4/6
f 8/36/5 17/37/5 5/38/5
f 7/33/3 9/39/3 8/40/3
f 15/41/1 1/42/1 16/21/1
f 2/1/1 3/34/1 4/2/1
f 6/4/2 7/43/2 8/5/2
f 10/7/3 11/44/3 12/8/3
f 14/10/4 15/45/4 16/11/4
f 9/13/5 12/8/5 13/12/5
f 2/15/6 15/46/6 14/16/6
f 18/18/6 14/47/6 11/19/6
f 17/20/5 13/24/5 16/21/5
f 11/23/4 14/48/4 13/24/4
f 3/26/2 6/31/2 5/27/2
f 5/29/5 17/49/5 1/3/5
f 6/31/6 18/50/6 10/32/6
f 3/34/6 2/51/6 18/35/6
f 8/36/5 9/39/5 17/37/5
f 7/33/3 10/52/3 9/39/3
f 15/41/1 2/15/1 1/42/1
o Creeper_Cube.002
v -0.000357 -0.992444 0.496222
v -0.000357 -0.496222 0.496222
v -0.000357 -0.496222 0.165407
v -0.000357 -0.992444 0.165407
v 0.330815 -0.496222 0.165407
v 0.330815 -0.992444 0.165407
v 0.330815 -0.496222 0.496222
v 0.330815 -0.992444 0.496222
v 0.330815 1.157851 -0.330815
v -0.330815 1.157851 -0.330815
v -0.330815 1.157851 0.330815
v 0.330815 1.157851 0.330815
v 0.330815 0.496222 0.330815
v -0.330815 0.496222 0.330815
v -0.330815 0.496222 -0.330815
v 0.330815 0.496222 -0.330815
v -0.330815 -0.496222 0.165407
v -0.330815 0.496222 0.165407
v -0.330815 0.496222 -0.165407
v -0.330815 -0.496222 -0.165407
v 0.330815 0.496222 -0.165407
v 0.330815 -0.496222 -0.165407
v 0.330815 0.496222 0.165407
v 0.330815 -0.496222 0.165407
v -0.330815 -0.992444 -0.165407
v -0.330815 -0.496222 -0.165407
v -0.330815 -0.496222 -0.496222
v -0.330815 -0.992444 -0.496222
v 0.000000 -0.496222 -0.496222
v 0.000000 -0.992444 -0.496222
v 0.000000 -0.496222 -0.165407
v 0.000000 -0.992444 -0.165407
v 0.000000 -0.992444 -0.165407
v 0.000000 -0.496222 -0.165407
v 0.000000 -0.496222 -0.496222
v 0.000000 -0.992444 -0.496222
v 0.330815 -0.496222 -0.496222
v 0.330815 -0.992444 -0.496222
v 0.330815 -0.496222 -0.165407
v 0.330815 -0.992444 -0.165407
v -0.330815 -0.992444 0.496222
v -0.330815 -0.496222 0.496222
v -0.330815 -0.496222 0.165407
v -0.330815 -0.992444 0.165407
v 0.000000 -0.496222 0.165407
v 0.000000 -0.992444 0.165407
v 0.000000 -0.496222 0.496222
v 0.000000 -0.992444 0.496222
vt 0.062500 0.375000
vt 0.000000 0.187500
vt 0.062500 0.187500
vt 0.250000 0.375000
vt 0.187500 0.187500
vt 0.250000 0.187500
vt 0.187500 0.375000
vt 0.125000 0.187500
vt 0.125000 0.375000
vt 0.187500 0.375000
vt 0.125000 0.500000
vt 0.125000 0.375000
vt 0.125000 0.375000
vt 0.062500 0.500000
vt 0.062500 0.375000
vt 0.125000 1.000000
vt 0.250000 0.750000
vt 0.250000 1.000000
vt 0.125000 0.500000
vt 0.250000 0.500000
vt 0.125000 0.750000
vt -0.000000 0.500000
vt 0.250000 1.000000
vt 0.375000 0.750000
vt 0.375000 1.000000
vt 0.375000 0.750000
vt 0.375000 0.500000
vt 0.500000 0.750000
vt 0.500000 0.500000
vt 0.312500 0.375000
vt 0.250000 0.000000
vt 0.312500 -0.000000
vt 0.500000 0.000000
vt 0.625000 0.375000
vt 0.500000 0.375000
vt 0.500000 0.375000
vt 0.437500 -0.000000
vt 0.500000 -0.000000
vt 0.437500 0.375000
vt 0.562500 0.500000
vt 0.437500 0.375000
vt 0.437500 0.500000
vt 1.000000 0.000000
vt 0.000000 1.000000
vt 0.000000 0.000000
vt 0.062500 0.375000
vt 0.000000 0.187500
vt 0.062500 0.187500
vt 0.250000 0.375000
vt 0.187500 0.187500
vt 0.250000 0.187500
vt 0.187500 0.375000
vt 0.125000 0.187500
vt 0.125000 0.375000
vt 0.187500 0.375000
vt 0.125000 0.500000
vt 0.125000 0.375000
vt 0.125000 0.375000
vt 0.062500 0.500000
vt 0.062500 0.375000
vt 0.062500 0.375000
vt 0.000000 0.187500
vt 0.062500 0.187500
vt 0.250000 0.375000
vt 0.187500 0.187500
vt 0.250000 0.187500
vt 0.187500 0.375000
vt 0.125000 0.187500
vt 0.125000 0.375000
vt 0.187500 0.375000
vt 0.125000 0.500000
vt 0.125000 0.375000
vt 0.125000 0.375000
vt 0.062500 0.500000
vt 0.062500 0.375000
vt 0.062500 0.375000
vt 0.000000 0.187500
vt 0.062500 0.187500
vt 0.250000 0.375000
vt 0.187500 0.187500
vt 0.250000 0.187500
vt 0.187500 0.375000
vt 0.125000 0.187500
vt 0.125000 0.375000
vt 0.187500 0.375000
vt 0.125000 0.500000
vt 0.125000 0.375000
vt 0.125000 0.375000
vt 0.062500 0.500000
vt 0.062500 0.375000
vt -0.000000 0.375000
vt 0.187500 0.500000
vt 0.125000 0.500000
vt 0.000000 0.750000
vt 0.250000 0.750000
vt 0.250000 0.375000
vt 0.625000 0.000000
vt 0.562500 0.375000
vt 1.000000 1.000000
vt -0.000000 0.375000
vt 0.187500 0.500000
vt 0.125000 0.500000
vt -0.000000 0.375000
vt 0.187500 0.500000
vt 0.125000 0.500000
vt -0.000000 0.375000
vt 0.187500 0.500000
vt 0.125000 0.500000
vn -1.0000 0.0000 0.0000
vn 0.0000 0.0000 -1.0000
vn 1.0000 0.0000 0.0000
vn 0.0000 -0.0000 1.0000
vn 0.0000 -1.0000 -0.0000
vn 0.0000 1.0000 0.0000
usemtl Material.001
s 1
f 20/53/7 22/54/7 19/55/7
f 21/56/8 24/57/8 22/58/8
f 23/59/9 26/60/9 24/57/9
f 25/61/10 19/55/10 26/60/10
f 24/62/11 19/63/11 22/64/11
f 21/65/12 25/66/12 23/67/12
f 28/68/12 30/69/12 27/70/12
f 30/69/10 32/71/10 31/72/10
f 29/73/7 33/74/7 32/71/7
f 34/75/11 32/76/11 33/77/11
f 27/78/9 31/72/9 34/79/9
f 28/80/8 34/79/8 33/81/8
f 36/82/7 38/83/7 35/84/7
f 37/85/8 40/86/8 38/87/8
f 39/88/9 42/89/9 40/90/9
f 41/91/10 35/84/10 42/89/10
f 40/92/11 35/93/11 38/94/11
f 37/95/12 41/96/12 39/97/12
f 44/98/7 46/99/7 43/100/7
f 45/101/8 48/102/8 46/103/8
f 47/104/9 50/105/9 48/102/9
f 49/106/10 43/100/10 50/105/10
f 48/107/11 43/108/11 46/109/11
f 45/110/12 49/111/12 47/112/12
f 52/113/7 54/114/7 51/115/7
f 53/116/8 56/117/8 54/118/8
f 55/119/9 58/120/9 56/117/9
f 57/121/10 51/115/10 58/120/10
f 56/122/11 51/123/11 54/124/11
f 53/125/12 57/126/12 55/127/12
f 60/128/7 62/129/7 59/130/7
f 61/131/8 64/132/8 62/133/8
f 63/134/9 66/135/9 64/132/9
f 65/136/10 59/130/10 66/135/10
f 64/137/11 59/138/11 62/139/11
f 61/140/12 65/141/12 63/142/12
f 20/53/7 21/143/7 22/54/7
f 21/56/8 23/59/8 24/57/8
f 23/59/9 25/61/9 26/60/9
f 25/61/10 20/53/10 19/55/10
f 24/62/11 26/144/11 19/63/11
f 21/65/12 20/145/12 25/66/12
f 28/68/12 29/73/12 30/69/12
f 30/69/10 29/73/10 32/71/10
f 29/73/7 28/146/7 33/74/7
f 34/75/11 31/147/11 32/76/11
f 27/78/9 30/69/9 31/72/9
f 28/80/8 27/78/8 34/79/8
f 36/82/7 37/148/7 38/83/7
f 37/85/8 39/149/8 40/86/8
f 39/88/9 41/91/9 42/89/9
f 41/91/10 36/82/10 35/84/10
f 40/92/11 42/150/11 35/93/11
f 37/95/12 36/151/12 41/96/12
f 44/98/7 45/152/7 46/99/7
f 45/101/8 47/104/8 48/102/8
f 47/104/9 49/106/9 50/105/9
f 49/106/10 44/98/10 43/100/10
f 48/107/11 50/153/11 43/108/11
f 45/110/12 44/154/12 49/111/12
f 52/113/7 53/155/7 54/114/7
f 53/116/8 55/119/8 56/117/8
f 55/119/9 57/121/9 58/120/9
f 57/121/10 52/113/10 51/115/10
f 56/122/11 58/156/11 51/123/11
f 53/125/12 52/157/12 57/126/12
f 60/128/7 61/158/7 62/129/7
f 61/131/8 63/134/8 64/132/8
f 63/134/9 65/136/9 66/135/9
f 65/136/10 60/128/10 59/130/10
f 64/137/11 66/159/11 59/138/11
f 61/140/12 60/160/12 65/141/12
